<svg xmlns="http://www.w3.org/2000/svg" viewBox="0 0 1280 720" width="1280" height="720">
  <defs>
    <linearGradient id="headerGrad" x1="0%" y1="0%" x2="100%" y2="0%">
      <stop offset="0%" stop-color="#c9a84c" />
      <stop offset="100%" stop-color="#e8d48b" />
    </linearGradient>
    <radialGradient id="bgGlow" cx="80%" cy="20%" r="50%">
      <stop offset="0%" stop-color="#c9a84c" stop-opacity="0.08" />
      <stop offset="100%" stop-color="#c9a84c" stop-opacity="0" />
    </radialGradient>
  </defs>

  
  <rect width="1280" height="720" fill="#0a0e1a" />
  <rect width="1280" height="720" fill="url(#bgGlow)" />

  
  <path fill="url(#headerGrad)" d="M62,50 H138 A2,2 0 0 1 140,52 V52 A2,2 0 0 1 138,54 H62 A2,2 0 0 1 60,52 V52 A2,2 0 0 1 62,50 Z" />
  <text x="60" y="80" font-family="'Microsoft YaHei', 'PingFang SC', Arial, sans-serif" font-size="12" fill="#8a7234" letter-spacing="3">INTRODUCTION</text>
  <text x="60" y="115" font-family="Georgia, 'Microsoft YaHei', 'PingFang SC', serif" font-size="32" font-weight="bold" fill="#e8d48b">引言：占星学作为人性演化心理学的象征语言</text>

  
  <path fill="#151d35" stroke="#c9a84c" stroke-width="1" stroke-opacity="0.3" d="M70,145 H1210 A10,10 0 0 1 1220,155 V195 A10,10 0 0 1 1210,205 H70 A10,10 0 0 1 60,195 V155 A10,10 0 0 1 70,145 Z" />
  <text x="640" y="172" text-anchor="middle" font-family="Georgia, 'Times New Roman', serif" font-size="20" font-weight="bold" fill="#e8d48b">核心公理：「As above, so below」— 在上如是，在下亦然</text>
  <text x="640" y="195" text-anchor="middle" font-family="'Microsoft YaHei', 'PingFang SC', Arial, sans-serif" font-size="15" fill="#e8e6e1">西方占星学本质是一套用 <tspan fill="#c9a84c" font-weight="bold">神话—象征语言</tspan> 编码的 <tspan fill="#c9a84c" font-weight="bold">先天人性结构图谱</tspan>，将人类数百万年演化形成的底层本能，拆解为四大模块。</text>

  
  
  <path fill="#151d35" stroke="#2a3050" stroke-width="1" d="M70,230 H325 A10,10 0 0 1 335,240 V400 A10,10 0 0 1 325,410 H70 A10,10 0 0 1 60,400 V240 A10,10 0 0 1 70,230 Z" />
  
  <g transform="translate(175.0, 250.0) scale(2.0)" fill="#c9a84c">
    <path d="M8.243 7.34l-6.38 .925l-.113 .023a1 1 0 0 0 -.44 1.684l4.622 4.499l-1.09 6.355l-.013 .11a1 1 0 0 0 1.464 .944l5.706 -3l5.693 3l.1 .046a1 1 0 0 0 1.352 -1.1l-1.091 -6.355l4.624 -4.5l.078 -.085a1 1 0 0 0 -.633 -1.62l-6.38 -.926l-2.852 -5.78a1 1 0 0 0 -1.794 0l-2.853 5.78z" />
  </g>
  <text x="197" y="325" text-anchor="middle" font-family="'Microsoft YaHei', 'PingFang SC', Arial, sans-serif" font-size="20" font-weight="bold" fill="#e8d48b">十大星体</text>
  <text x="197" y="350" text-anchor="middle" font-family="'Microsoft YaHei', 'PingFang SC', Arial, sans-serif" font-size="14" fill="#9a98a0">核心驱力</text>
  <text x="197" y="370" text-anchor="middle" font-family="'Microsoft YaHei', 'PingFang SC', Arial, sans-serif" font-size="14" fill="#9a98a0">心理适应器</text>

  
  <path fill="#151d35" stroke="#2a3050" stroke-width="1" d="M370,230 H625 A10,10 0 0 1 635,240 V400 A10,10 0 0 1 625,410 H370 A10,10 0 0 1 360,400 V240 A10,10 0 0 1 370,230 Z" />
  <use data-icon="tabler-filled/zodiac-aries" x="475" y="250" width="48" height="48" fill="#4a7cf7" />
  <text x="497" y="325" text-anchor="middle" font-family="'Microsoft YaHei', 'PingFang SC', Arial, sans-serif" font-size="20" font-weight="bold" fill="#6b9bff">十二星座</text>
  <text x="497" y="350" text-anchor="middle" font-family="'Microsoft YaHei', 'PingFang SC', Arial, sans-serif" font-size="14" fill="#9a98a0">驱力的</text>
  <text x="497" y="370" text-anchor="middle" font-family="'Microsoft YaHei', 'PingFang SC', Arial, sans-serif" font-size="14" fill="#9a98a0">表达模式</text>

  
  <path fill="#151d35" stroke="#2a3050" stroke-width="1" d="M670,230 H925 A10,10 0 0 1 935,240 V400 A10,10 0 0 1 925,410 H670 A10,10 0 0 1 660,400 V240 A10,10 0 0 1 670,230 Z" />
  
  <g transform="translate(775.0, 250.0) scale(2.0)" fill="#7c5cbf">
    <path d="M12.707 2.293l9 9c.63 .63 .184 1.707 -.707 1.707h-1v6a3 3 0 0 1 -3 3h-1v-7a3 3 0 0 0 -2.824 -2.995l-.176 -.005h-2a3 3 0 0 0 -3 3v7h-1a3 3 0 0 1 -3 -3v-6h-1c-.89 0 -1.337 -1.077 -.707 -1.707l9 -9a1 1 0 0 1 1.414 0m.293 11.707a1 1 0 0 1 1 1v7h-4v-7a1 1 0 0 1 .883 -.993l.117 -.007z" />
  </g>
  <text x="797" y="325" text-anchor="middle" font-family="'Microsoft YaHei', 'PingFang SC', Arial, sans-serif" font-size="20" font-weight="bold" fill="#a78bfa">十二宫位</text>
  <text x="797" y="350" text-anchor="middle" font-family="'Microsoft YaHei', 'PingFang SC', Arial, sans-serif" font-size="14" fill="#9a98a0">驱力的</text>
  <text x="797" y="370" text-anchor="middle" font-family="'Microsoft YaHei', 'PingFang SC', Arial, sans-serif" font-size="14" fill="#9a98a0">落地场景</text>

  
  <path fill="#151d35" stroke="#2a3050" stroke-width="1" d="M970,230 H1210 A10,10 0 0 1 1220,240 V400 A10,10 0 0 1 1210,410 H970 A10,10 0 0 1 960,400 V240 A10,10 0 0 1 970,230 Z" />
  <use data-icon="tabler-filled/layers-intersect" x="1065" y="250" width="48" height="48" fill="#4ac9c9" />
  <text x="1090" y="325" text-anchor="middle" font-family="'Microsoft YaHei', 'PingFang SC', Arial, sans-serif" font-size="20" font-weight="bold" fill="#4ac9c9">相位</text>
  <text x="1090" y="350" text-anchor="middle" font-family="'Microsoft YaHei', 'PingFang SC', Arial, sans-serif" font-size="14" fill="#9a98a0">驱力的</text>
  <text x="1090" y="370" text-anchor="middle" font-family="'Microsoft YaHei', 'PingFang SC', Arial, sans-serif" font-size="14" fill="#9a98a0">协同与冲突</text>

  
  <path fill="#151d35" stroke="#4a7cf7" stroke-width="1" stroke-opacity="0.3" d="M70,440 H1210 A10,10 0 0 1 1220,450 V570 A10,10 0 0 1 1210,580 H70 A10,10 0 0 1 60,570 V450 A10,10 0 0 1 70,440 Z" />
  <path fill="#4a7cf7" d="M62,440 H62 A2,2 0 0 1 64,442 V578 A2,2 0 0 1 62,580 H62 A2,2 0 0 1 60,578 V442 A2,2 0 0 1 62,440 Z" />
  <text x="90" y="475" font-family="'Microsoft YaHei', 'PingFang SC', Arial, sans-serif" font-size="18" font-weight="bold" fill="#6b9bff">核心论点：</text>
  <text x="90" y="505" font-family="'Microsoft YaHei', 'PingFang SC', Arial, sans-serif" font-size="16" fill="#e8e6e1">西方占星学的完整体系，就是一套用神话—象征语言编码的人性演化心理学模型。</text>
  <text x="90" y="535" font-family="'Microsoft YaHei', 'PingFang SC', Arial, sans-serif" font-size="16" fill="#e8e6e1">现代心理学是 <tspan fill="#c9a84c" font-weight="bold">「归纳式」</tspan> 的（从行为反推人性），而占星学是 <tspan fill="#c9a84c" font-weight="bold">「演绎式」</tspan> 的</text>
  <text x="90" y="560" font-family="'Microsoft YaHei', 'PingFang SC', Arial, sans-serif" font-size="16" fill="#e8e6e1">（从宇宙秩序直接映射先天人性结构），二者最终指向同一套刻在人类基因里的底层生存本能。</text>

  
  <text x="1220" y="690" text-anchor="end" font-family="'Microsoft YaHei', 'PingFang SC', Arial, sans-serif" font-size="11" fill="#6e6e73">03 / 18</text>
</svg>