<svg xmlns="http://www.w3.org/2000/svg" viewBox="0 0 1280 720" width="1280" height="720">
  <defs>
    <linearGradient id="headerGrad" x1="0%" y1="0%" x2="100%" y2="0%">
      <stop offset="0%" stop-color="#c9a84c" />
      <stop offset="100%" stop-color="#e8d48b" />
    </linearGradient>
  </defs>
  <rect width="1280" height="720" fill="#0a0e1a" />
  <text x="60" y="80" font-family="'Microsoft YaHei', 'PingFang SC', Arial, sans-serif" font-size="12" fill="#8a7234" letter-spacing="3">CHAPTER 03</text>
  <text x="60" y="115" font-family="Georgia, 'Microsoft YaHei', 'PingFang SC', serif" font-size="32" font-weight="bold" fill="#e8d48b">相位理论：星体间的互动模式</text>
  <line x1="60" y1="130" x2="200" y2="130" stroke="#c9a84c" stroke-width="2" opacity="0.6" />
  <text x="60" y="170" font-family="'Microsoft YaHei', 'PingFang SC', Arial, sans-serif" font-size="16" fill="#e8e6e1">相位（Aspects）描述了两颗或多颗星体之间的角度关系，反映了不同本能驱力之间的互动模式。每种相位对应不同的人性互动方式。</text>
  <text x="60" y="210" font-family="'Microsoft YaHei', 'PingFang SC', Arial, sans-serif" font-size="18" font-weight="bold" fill="#e8d48b">五种核心相位</text>
  <path fill="#151d35" stroke="#4caf7d" stroke-width="1" stroke-opacity="0.4" d="M70,230 H270 A10,10 0 0 1 280,240 V420 A10,10 0 0 1 270,430 H70 A10,10 0 0 1 60,420 V240 A10,10 0 0 1 70,230 Z" />
  <path fill="#4caf7d" d="M62,230 H62 A2,2 0 0 1 64,232 V428 A2,2 0 0 1 62,430 H62 A2,2 0 0 1 60,428 V232 A2,2 0 0 1 62,230 Z" />
  <text x="170" y="275" text-anchor="middle" font-family="'Microsoft YaHei', 'PingFang SC', Arial, sans-serif" font-size="28" font-weight="bold" fill="#4caf7d">0°</text>
  <text x="170" y="310" text-anchor="middle" font-family="'Microsoft YaHei', 'PingFang SC', Arial, sans-serif" font-size="18" font-weight="bold" fill="#e8d48b">合相</text>
  <text x="170" y="340" text-anchor="middle" font-family="'Microsoft YaHei', 'PingFang SC', Arial, sans-serif" font-size="14" fill="#9a98a0">能量融合</text>
  <text x="170" y="365" text-anchor="middle" font-family="'Microsoft YaHei', 'PingFang SC', Arial, sans-serif" font-size="13" fill="#6e6e73">两颗星体在同一位置，</text>
  <text x="170" y="385" text-anchor="middle" font-family="'Microsoft YaHei', 'PingFang SC', Arial, sans-serif" font-size="13" fill="#6e6e73">能量完全融合</text>
  <text x="170" y="410" text-anchor="middle" font-family="'Microsoft YaHei', 'PingFang SC', Arial, sans-serif" font-size="13" fill="#4caf7d">人性：驱力合一</text>
  <path fill="#151d35" stroke="#4ac9c9" stroke-width="1" stroke-opacity="0.4" d="M310,230 H510 A10,10 0 0 1 520,240 V420 A10,10 0 0 1 510,430 H310 A10,10 0 0 1 300,420 V240 A10,10 0 0 1 310,230 Z" />
  <path fill="#4ac9c9" d="M302,230 H302 A2,2 0 0 1 304,232 V428 A2,2 0 0 1 302,430 H302 A2,2 0 0 1 300,428 V232 A2,2 0 0 1 302,230 Z" />
  <text x="410" y="275" text-anchor="middle" font-family="'Microsoft YaHei', 'PingFang SC', Arial, sans-serif" font-size="28" font-weight="bold" fill="#4ac9c9">60°</text>
  <text x="410" y="310" text-anchor="middle" font-family="'Microsoft YaHei', 'PingFang SC', Arial, sans-serif" font-size="18" font-weight="bold" fill="#e8d48b">六分相</text>
  <text x="410" y="340" text-anchor="middle" font-family="'Microsoft YaHei', 'PingFang SC', Arial, sans-serif" font-size="14" fill="#9a98a0">和谐互动</text>
  <text x="410" y="365" text-anchor="middle" font-family="'Microsoft YaHei', 'PingFang SC', Arial, sans-serif" font-size="13" fill="#6e6e73">两颗星体形成60度角，</text>
  <text x="410" y="385" text-anchor="middle" font-family="'Microsoft YaHei', 'PingFang SC', Arial, sans-serif" font-size="13" fill="#6e6e73">能量和谐流动</text>
  <text x="410" y="410" text-anchor="middle" font-family="'Microsoft YaHei', 'PingFang SC', Arial, sans-serif" font-size="13" fill="#4ac9c9">人性：协作共赢</text>
  <path fill="#151d35" stroke="#e05555" stroke-width="1" stroke-opacity="0.4" d="M550,230 H750 A10,10 0 0 1 760,240 V420 A10,10 0 0 1 750,430 H550 A10,10 0 0 1 540,420 V240 A10,10 0 0 1 550,230 Z" />
  <path fill="#e05555" d="M542,230 H542 A2,2 0 0 1 544,232 V428 A2,2 0 0 1 542,430 H542 A2,2 0 0 1 540,428 V232 A2,2 0 0 1 542,230 Z" />
  <text x="650" y="275" text-anchor="middle" font-family="'Microsoft YaHei', 'PingFang SC', Arial, sans-serif" font-size="28" font-weight="bold" fill="#e05555">90°</text>
  <text x="650" y="310" text-anchor="middle" font-family="'Microsoft YaHei', 'PingFang SC', Arial, sans-serif" font-size="18" font-weight="bold" fill="#e8d48b">四分相</text>
  <text x="650" y="340" text-anchor="middle" font-family="'Microsoft YaHei', 'PingFang SC', Arial, sans-serif" font-size="14" fill="#9a98a0">紧张冲突</text>
  <text x="650" y="365" text-anchor="middle" font-family="'Microsoft YaHei', 'PingFang SC', Arial, sans-serif" font-size="13" fill="#6e6e73">两颗星体形成90度角，</text>
  <text x="650" y="385" text-anchor="middle" font-family="'Microsoft YaHei', 'PingFang SC', Arial, sans-serif" font-size="13" fill="#6e6e73">能量产生摩擦</text>
  <text x="650" y="410" text-anchor="middle" font-family="'Microsoft YaHei', 'PingFang SC', Arial, sans-serif" font-size="13" fill="#e05555">人性：内在冲突</text>
  <path fill="#151d35" stroke="#4a7cf7" stroke-width="1" stroke-opacity="0.4" d="M790,230 H990 A10,10 0 0 1 1000,240 V420 A10,10 0 0 1 990,430 H790 A10,10 0 0 1 780,420 V240 A10,10 0 0 1 790,230 Z" />
  <path fill="#4a7cf7" d="M782,230 H782 A2,2 0 0 1 784,232 V428 A2,2 0 0 1 782,430 H782 A2,2 0 0 1 780,428 V232 A2,2 0 0 1 782,230 Z" />
  <text x="890" y="275" text-anchor="middle" font-family="'Microsoft YaHei', 'PingFang SC', Arial, sans-serif" font-size="28" font-weight="bold" fill="#6b9bff">120°</text>
  <text x="890" y="310" text-anchor="middle" font-family="'Microsoft YaHei', 'PingFang SC', Arial, sans-serif" font-size="18" font-weight="bold" fill="#e8d48b">三分相</text>
  <text x="890" y="340" text-anchor="middle" font-family="'Microsoft YaHei', 'PingFang SC', Arial, sans-serif" font-size="14" fill="#9a98a0">天赋流畅</text>
  <text x="890" y="365" text-anchor="middle" font-family="'Microsoft YaHei', 'PingFang SC', Arial, sans-serif" font-size="13" fill="#6e6e73">两颗星体形成120度角，</text>
  <text x="890" y="385" text-anchor="middle" font-family="'Microsoft YaHei', 'PingFang SC', Arial, sans-serif" font-size="13" fill="#6e6e73">能量自然流畅</text>
  <text x="890" y="410" text-anchor="middle" font-family="'Microsoft YaHei', 'PingFang SC', Arial, sans-serif" font-size="13" fill="#6b9bff">人性：天赋才能</text>
  <path fill="#151d35" stroke="#7c5cbf" stroke-width="1" stroke-opacity="0.4" d="M1030,230 H1210 A10,10 0 0 1 1220,240 V420 A10,10 0 0 1 1210,430 H1030 A10,10 0 0 1 1020,420 V240 A10,10 0 0 1 1030,230 Z" />
  <path fill="#7c5cbf" d="M1022,230 H1022 A2,2 0 0 1 1024,232 V428 A2,2 0 0 1 1022,430 H1022 A2,2 0 0 1 1020,428 V232 A2,2 0 0 1 1022,230 Z" />
  <text x="1120" y="275" text-anchor="middle" font-family="'Microsoft YaHei', 'PingFang SC', Arial, sans-serif" font-size="28" font-weight="bold" fill="#a78bfa">180°</text>
  <text x="1120" y="310" text-anchor="middle" font-family="'Microsoft YaHei', 'PingFang SC', Arial, sans-serif" font-size="18" font-weight="bold" fill="#e8d48b">对分相</text>
  <text x="1120" y="340" text-anchor="middle" font-family="'Microsoft YaHei', 'PingFang SC', Arial, sans-serif" font-size="14" fill="#9a98a0">对立平衡</text>
  <text x="1120" y="365" text-anchor="middle" font-family="'Microsoft YaHei', 'PingFang SC', Arial, sans-serif" font-size="13" fill="#6e6e73">两颗星体形成180度角，</text>
  <text x="1120" y="385" text-anchor="middle" font-family="'Microsoft YaHei', 'PingFang SC', Arial, sans-serif" font-size="13" fill="#6e6e73">能量对立但互补</text>
  <text x="1120" y="410" text-anchor="middle" font-family="'Microsoft YaHei', 'PingFang SC', Arial, sans-serif" font-size="13" fill="#a78bfa">人性：两极拉扯</text>
  <path fill="#151d35" stroke="#c9a84c" stroke-width="1" stroke-opacity="0.2" d="M70,460 H1210 A10,10 0 0 1 1220,470 V510 A10,10 0 0 1 1210,520 H70 A10,10 0 0 1 60,510 V470 A10,10 0 0 1 70,460 Z" />
  <text x="640" y="490" text-anchor="middle" font-family="'Microsoft YaHei', 'PingFang SC', Arial, sans-serif" font-size="15" fill="#e8e6e1">📌 <tspan fill="#c9a84c" font-weight="bold">相位本质：</tspan>不同本能驱力之间的角度关系，反映了人性中各种驱力的协作、冲突、融合或对立模式。</text>
  <text x="60" y="550" font-family="'Microsoft YaHei', 'PingFang SC', Arial, sans-serif" font-size="18" font-weight="bold" fill="#e8d48b">相位与人性互动模式</text>
  <path fill="#1a2440" d="M64,570 H426 A4,4 0 0 1 430,574 V606 A4,4 0 0 1 426,610 H64 A4,4 0 0 1 60,606 V574 A4,4 0 0 1 64,570 Z" />
  <text x="245" y="595" text-anchor="middle" font-family="'Microsoft YaHei', 'PingFang SC', Arial, sans-serif" font-size="14" font-weight="bold" fill="#e8d48b">相位类型</text>
  <path fill="#1a2440" d="M434,570 H796 A4,4 0 0 1 800,574 V606 A4,4 0 0 1 796,610 H434 A4,4 0 0 1 430,606 V574 A4,4 0 0 1 434,570 Z" />
  <text x="615" y="595" text-anchor="middle" font-family="'Microsoft YaHei', 'PingFang SC', Arial, sans-serif" font-size="14" font-weight="bold" fill="#e8d48b">能量特征</text>
  <path fill="#1a2440" d="M804,570 H1216 A4,4 0 0 1 1220,574 V606 A4,4 0 0 1 1216,610 H804 A4,4 0 0 1 800,606 V574 A4,4 0 0 1 804,570 Z" />
  <text x="1010" y="595" text-anchor="middle" font-family="'Microsoft YaHei', 'PingFang SC', Arial, sans-serif" font-size="14" font-weight="bold" fill="#e8d48b">人性表现</text>
  <rect x="60" y="610" width="370" height="35" fill="#151d35" />
  <text x="245" y="632" text-anchor="middle" font-family="'Microsoft YaHei', 'PingFang SC', Arial, sans-serif" font-size="13" fill="#4caf7d">合相 (0°)</text>
  <rect x="430" y="610" width="370" height="35" fill="#151d35" />
  <text x="615" y="632" text-anchor="middle" font-family="'Microsoft YaHei', 'PingFang SC', Arial, sans-serif" font-size="13" fill="#e8e6e1">能量融合、集中</text>
  <rect x="800" y="610" width="420" height="35" fill="#151d35" />
  <text x="1010" y="632" text-anchor="middle" font-family="'Microsoft YaHei', 'PingFang SC', Arial, sans-serif" font-size="13" fill="#e8e6e1">两种驱力合一，形成强大的复合动机</text>
  <rect x="60" y="645" width="370" height="35" />
  <text x="245" y="667" text-anchor="middle" font-family="'Microsoft YaHei', 'PingFang SC', Arial, sans-serif" font-size="13" fill="#4ac9c9">六分相 (60°)</text>
  <rect x="430" y="645" width="370" height="35" />
  <text x="615" y="667" text-anchor="middle" font-family="'Microsoft YaHei', 'PingFang SC', Arial, sans-serif" font-size="13" fill="#e8e6e1">和谐、机会</text>
  <rect x="800" y="645" width="420" height="35" />
  <text x="1010" y="667" text-anchor="middle" font-family="'Microsoft YaHei', 'PingFang SC', Arial, sans-serif" font-size="13" fill="#e8e6e1">两种驱力协作，产生协同效应</text>
  <text x="1220" y="690" text-anchor="end" font-family="'Microsoft YaHei', 'PingFang SC', Arial, sans-serif" font-size="11" fill="#6e6e73">12 / 18</text>
</svg>