<svg xmlns="http://www.w3.org/2000/svg" viewBox="0 0 1280 720" width="1280" height="720">
  <defs>
    <linearGradient id="bgGradient" x1="0%" y1="0%" x2="0%" y2="100%">
      <stop offset="0%" stop-color="#0a0a0f"/>
      <stop offset="100%" stop-color="#141419"/>
    </linearGradient>
    <linearGradient id="accentGradient" x1="0%" y1="0%" x2="100%" y2="100%">
      <stop offset="0%" stop-color="#c9a962"/>
      <stop offset="100%" stop-color="#e0c882"/>
    </linearGradient>
  </defs>

  <rect width="1280" height="720" fill="url(#bgGradient)"/>
  <rect x="0" y="0" width="1280" height="4" fill="url(#accentGradient)"/>

  <g transform="translate(60, 40)">
    <text fill="#c9a962" font-family="Inter, sans-serif" font-size="11" font-weight="600" letter-spacing="2">CHAPTER 03</text>
  </g>
  <text x="60" y="85" fill="#f5f5f7" font-family="Space Grotesk, Inter, sans-serif" font-size="32" font-weight="700">辅料与五金体系</text>
  <rect x="60" y="100" width="80" height="3" fill="url(#accentGradient)"/>
  <text x="60" y="125" fill="#86868b" font-family="Inter, sans-serif" font-size="13">拉链、扣具——战术服装"专业感"与"可靠性"的具象化表达</text>

  <g transform="translate(60, 155)">
    <g transform="translate(0, 0)">
      <rect x="0" y="0" width="560" height="530" rx="8" fill="#1a1a20" stroke="#2a2a35"/>
      <rect x="0" y="0" width="560" height="6" fill="#c9a962"/>
      <text x="20" y="35" fill="#c9a962" font-family="Space Grotesk, sans-serif" font-size="16" font-weight="600">拉链</text>
      <text x="20" y="60" fill="#86868b" font-family="Inter, sans-serif" font-size="12">YKK（70%市占率）、SBS | 树脂/金属，抗腐蚀</text>
      <text x="20" y="80" fill="#c9a962" font-family="Space Grotesk, sans-serif" font-size="14" font-weight="700">$0.5-3/pcs</text>
      <rect x="20" y="95" width="245" height="180" rx="4" fill="#252530" stroke="#3a3a45"/>
      <text x="142" y="195" text-anchor="middle" fill="#6e6e73" font-family="Inter, sans-serif" font-size="11">YKK金属拉链</text>
      <rect x="275" y="95" width="245" height="180" rx="4" fill="#252530" stroke="#3a3a45"/>
      <text x="397" y="195" text-anchor="middle" fill="#6e6e73" font-family="Inter, sans-serif" font-size="11">YKK树脂拉链</text>
      <rect x="20" y="285" width="245" height="180" rx="4" fill="#252530" stroke="#3a3a45"/>
      <text x="142" y="385" text-anchor="middle" fill="#6e6e73" font-family="Inter, sans-serif" font-size="11">SBS闭尾拉链</text>
      <rect x="275" y="285" width="245" height="180" rx="4" fill="#252530" stroke="#3a3a45"/>
      <text x="397" y="385" text-anchor="middle" fill="#6e6e73" font-family="Inter, sans-serif" font-size="11">防水拉链</text>
      <text x="280" y="505" text-anchor="middle" fill="#6e6e73" font-family="Inter, sans-serif" font-size="10">245×180 4:3</text>
    </g>

    <g transform="translate(600, 0)">
      <rect x="0" y="0" width="560" height="530" rx="8" fill="#1a1a20" stroke="#2a2a35"/>
      <rect x="0" y="0" width="560" height="6" fill="#c9a962"/>
      <text x="20" y="35" fill="#c9a962" font-family="Space Grotesk, sans-serif" font-size="16" font-weight="600">扣具</text>
      <text x="20" y="60" fill="#86868b" font-family="Inter, sans-serif" font-size="12">ITW Nexus、Cobra（军规）| acetyl、锌合金</text>
      <text x="20" y="80" fill="#c9a962" font-family="Space Grotesk, sans-serif" font-size="14" font-weight="700">$1-8/pcs</text>
      <rect x="20" y="95" width="245" height="180" rx="4" fill="#252530" stroke="#3a3a45"/>
      <text x="142" y="195" text-anchor="middle" fill="#6e6e73" font-family="Inter, sans-serif" font-size="11">Cobra军规扣具</text>
      <rect x="275" y="95" width="245" height="180" rx="4" fill="#252530" stroke="#3a3a45"/>
      <text x="397" y="195" text-anchor="middle" fill="#6e6e73" font-family="Inter, sans-serif" font-size="11">ITW Nexus扣具</text>
      <rect x="20" y="285" width="245" height="180" rx="4" fill="#252530" stroke="#3a3a45"/>
      <text x="142" y="385" text-anchor="middle" fill="#6e6e73" font-family="Inter, sans-serif" font-size="11">UTX扣具</text>
      <rect x="275" y="285" width="245" height="180" rx="4" fill="#252530" stroke="#3a3a45"/>
      <text x="397" y="385" text-anchor="middle" fill="#6e6e73" font-family="Inter, sans-serif" font-size="11">Duraflex扣具</text>
      <text x="280" y="505" text-anchor="middle" fill="#6e6e73" font-family="Inter, sans-serif" font-size="10">245×180 4:3</text>
    </g>
  </g>

  <rect x="0" y="716" width="1280" height="4" fill="url(#accentGradient)"/>
</svg>