<svg xmlns="http://www.w3.org/2000/svg" viewBox="0 0 1280 720" width="1280" height="720">
  <defs>
    <linearGradient id="bgGradient" x1="0%" y1="0%" x2="0%" y2="100%">
      <stop offset="0%" stop-color="#0a0a0f"/>
      <stop offset="100%" stop-color="#141419"/>
    </linearGradient>
    <linearGradient id="accentGradient" x1="0%" y1="0%" x2="100%" y2="100%">
      <stop offset="0%" stop-color="#c9a962"/>
      <stop offset="100%" stop-color="#e0c882"/>
    </linearGradient>
  </defs>

  <rect width="1280" height="720" fill="url(#bgGradient)"/>
  <rect x="0" y="0" width="1280" height="4" fill="url(#accentGradient)"/>

  <g transform="translate(60, 40)">
    <text fill="#c9a962" font-family="Inter, sans-serif" font-size="11" font-weight="600" letter-spacing="2">CHAPTER 05</text>
  </g>
  <text x="60" y="85" fill="#f5f5f7" font-family="Space Grotesk, Inter, sans-serif" font-size="32" font-weight="700">品牌竞争格局</text>
  <rect x="60" y="100" width="80" height="3" fill="url(#accentGradient)"/>
  <text x="60" y="125" fill="#86868b" font-family="Inter, sans-serif" font-size="13">市场存在清晰的价格阶梯和对应的消费群体</text>

  <text x="60" y="165" fill="#f5f5f7" font-family="Space Grotesk, sans-serif" font-size="14" font-weight="600">价格分层与定位矩阵</text>

  <g transform="translate(60, 190)">
    <g transform="translate(0, 0)">
      <rect x="0" y="0" width="540" height="510" rx="8" fill="#1a1a20" stroke="#2a2a35"/>
      <rect x="0" y="0" width="540" height="8" fill="#c9a962"/>
      <text x="20" y="35" fill="#c9a962" font-family="Space Grotesk, sans-serif" font-size="14" font-weight="600">$80-150 专业战术</text>
      <text x="20" y="60" fill="#f5f5f7" font-family="Inter, sans-serif" font-size="12">Vertx, First Tactical</text>
      <text x="20" y="80" fill="#86868b" font-family="Inter, sans-serif" font-size="10">顶级面料、精密版型、细节工艺</text>
      <text x="20" y="100" fill="#6e6e73" font-family="Inter, sans-serif" font-size="10">目标：专业用户、城市战术爱好者</text>
      <rect x="20" y="115" width="500" height="380" rx="4" fill="#252530" stroke="#3a3a45" stroke-dasharray="4,2"/>
      <text x="270" y="315" text-anchor="middle" fill="#6e6e73" font-family="Inter, sans-serif" font-size="14">[ 专业战术产品图 3:4竖版 ]</text>
    </g>

    <g transform="translate(560, 0)">
      <rect x="0" y="0" width="540" height="510" rx="8" fill="#1a1a20" stroke="#2a2a35"/>
      <rect x="0" y="0" width="540" height="8" fill="#c9a962"/>
      <text x="20" y="35" fill="#c9a962" font-family="Space Grotesk, sans-serif" font-size="14" font-weight="600">$150+ 顶级军规</text>
      <text x="20" y="60" fill="#f5f5f7" font-family="Inter, sans-serif" font-size="12">Crye Precision, Arc'teryx LEAF</text>
      <text x="20" y="80" fill="#86868b" font-family="Inter, sans-serif" font-size="10">军事级别耐用性、轻量化</text>
      <text x="20" y="100" fill="#6e6e73" font-family="Inter, sans-serif" font-size="10">目标：特种部队、高端装备玩家</text>
      <rect x="20" y="115" width="500" height="380" rx="4" fill="#252530" stroke="#3a3a45" stroke-dasharray="4,2"/>
      <text x="270" y="315" text-anchor="middle" fill="#6e6e73" font-family="Inter, sans-serif" font-size="14">[ 顶级军规产品图 3:4竖版 ]</text>
    </g>
  </g>

  <rect x="0" y="716" width="1280" height="4" fill="url(#accentGradient)"/>
</svg>